<?xml version="1.0" encoding="UTF-8"?>
<svg version="1.1" xmlns="http://www.w3.org/2000/svg" width="512" height="512">
<path d="M0 0 C168.96 0 337.92 0 512 0 C512 168.96 512 337.92 512 512 C343.04 512 174.08 512 0 512 C0 343.04 0 174.08 0 0 Z " fill="#2196F2" transform="translate(0,0)"/>
<path d="M0 0 C27.15257274 12.55185191 52.00019221 37.13565641 74.25 56.625 C75.49467639 57.71037395 75.49467639 57.71037395 76.76449776 58.81767464 C120.0666038 96.71343625 148.66441554 135.30081014 152.62420964 193.76213586 C154.31290456 220.77340471 153.90651599 247.72887606 152.75 274.75 C152.69010173 276.18653348 152.63027531 277.62306996 152.5705204 279.05960941 C151.00977295 316.15491435 148.14423124 353.09962601 144 390 C105.94523434 393.60547857 67.86289012 396.06666176 29.6658082 397.42287952 C27.50632352 397.49977483 25.34692039 397.57873766 23.18751144 397.65772772 C-104.46262439 402.25282459 -104.46262439 402.25282459 -153.8912549 357.37022388 C-163.06467552 348.83371943 -171.39079176 339.60264493 -179.5 330.0625 C-180.11163624 329.34661839 -180.72327248 328.63073677 -181.35344315 327.89316177 C-224 277.84724002 -224 277.84724002 -224 269 C-202.88 269 -181.76 269 -160 269 C-160.2784375 261.49958984 -160.2784375 261.49958984 -160.5625 253.84765625 C-160.64444319 250.64354008 -160.72145875 247.44074886 -160.78125 244.23632812 C-160.87624669 239.16949158 -160.98745789 234.10735836 -161.20703125 229.04418945 C-162.51815733 198.00092698 -162.51815733 198.00092698 -154.54663086 188.78111267 C-151.85563181 186.18195021 -149.05453883 183.86587882 -146.04589844 181.64498901 C-143.18296325 179.34306784 -140.94197673 176.64743437 -138.62744141 173.80799866 C-136.91015668 171.90018898 -135.09540883 170.47325433 -133 169 C-123.84181958 184.3556601 -114.90963346 199.83448333 -106.06591797 215.37255859 C-102.96484871 220.81965894 -99.85304956 226.26062848 -96.74209595 231.7020874 C-95.19745751 234.4040287 -93.65344001 237.10632473 -92.109375 239.80859375 C-90.75328125 242.18175781 -89.3971875 244.55492187 -88 247 C-84.04 253.93 -80.08 260.86 -76 268 C-50.92 268 -25.84 268 0 268 C-13.06139329 245.84507973 -13.06139329 245.84507973 -26.51171875 223.98828125 C-29.77819813 218.79253325 -32.91221369 213.51666986 -36.0625 208.25 C-41.46968575 199.21056913 -46.90429557 190.18858214 -52.375 181.1875 C-52.72687378 180.60842896 -53.07874756 180.02935791 -53.44128418 179.43273926 C-55.59586561 175.88718504 -57.7513044 172.3421527 -59.90704346 168.79730225 C-63.21010061 163.36562055 -66.51196986 157.93321759 -69.8125 152.5 C-70.16535065 151.91918671 -70.51820129 151.33837341 -70.88174438 150.73995972 C-77.2936606 140.18339271 -83.66150412 129.6007985 -90 119 C-86.69137802 113.95550176 -83.34512071 109.00423369 -79.625 104.25 C-78.7584952 103.13589812 -77.89265974 102.02127547 -77.02734375 100.90625 C-76.55151855 100.29394531 -76.07569336 99.68164062 -75.58544922 99.05078125 C-72.42940534 94.96843315 -69.31164212 90.85677701 -66.1875 86.75 C-61.29854997 80.3280451 -56.40535254 73.90943543 -51.5 67.5 C-46.65819095 61.17310777 -41.82696728 54.83822207 -37 48.5 C-30.0117917 39.32428712 -23.00950333 30.15945042 -16 21 C-13.62475349 17.89602185 -11.24980711 14.79181433 -8.875 11.6875 C-8.33012939 10.97561523 -7.78525879 10.26373047 -7.22387695 9.53027344 C-4.80168266 6.36399638 -2.38274508 3.19616495 0 0 Z " fill="#1C80D0" transform="translate(368,122)"/>
<path d="M0 0 C21.45 0 42.9 0 65 0 C65.33 38.61 65.66 77.22 66 117 C72.93 106.11 72.93 106.11 80 95 C83.21106535 90.27161805 86.42208045 85.5560404 89.6953125 80.87255859 C91.43139623 78.38083663 93.14737315 75.87558997 94.86352539 73.37011719 C99.11775669 67.16017896 103.40650136 60.97486724 107.71118164 54.79980469 C113.761133 46.12079411 119.78697629 37.42652143 125.75 28.6875 C126.30268555 27.87845215 126.85537109 27.0694043 127.42480469 26.23583984 C127.98071289 25.41937988 128.53662109 24.60291992 129.109375 23.76171875 C129.74069336 22.90739258 130.37201172 22.05306641 131.02246094 21.17285156 C132.70808533 18.46836086 133.63613334 16.32696629 134.67285156 13.36621094 C137.01682897 7.61667676 139.51442245 3.19213927 145 0 C157.03965049 -3.48282593 171.02395903 -1.7624408 183.37249756 -1.23596191 C188.17790684 -1.05065628 192.98500469 -0.9693776 197.79296875 -0.87890625 C207.19978884 -0.68676975 216.59903563 -0.38028117 226 0 C221.63570873 6.57354615 221.63570873 6.57354615 219.22265625 9.70703125 C218.71629639 10.36670898 218.20993652 11.02638672 217.68823242 11.70605469 C216.88349487 12.74874512 216.88349487 12.74874512 216.0625 13.8125 C214.89318769 15.33460356 213.72391801 16.85673986 212.5546875 18.37890625 C211.96139648 19.14992676 211.36810547 19.92094727 210.75683594 20.71533203 C208.06044704 24.22183666 205.37381571 27.73577607 202.6875 31.25 C202.15970947 31.94005127 201.63191895 32.63010254 201.08813477 33.34106445 C196.03081297 39.95483297 190.98648857 46.57848434 185.94213867 53.20214844 C181.80069047 58.63932015 177.65359805 64.07210551 173.5 69.5 C160.92235785 85.94242277 148.39294337 102.41770295 136 119 C139.42134783 126.21209569 143.51743996 132.95131282 147.6875 139.75 C148.44434873 140.9893768 149.20085228 142.22896445 149.95703125 143.46875 C151.52520002 146.03922668 153.09483621 148.60879828 154.66552734 151.17773438 C157.93941405 156.53484947 161.19515149 161.90296177 164.45114136 167.27096558 C166.2140951 170.17717961 167.97813245 173.08273562 169.7421875 175.98828125 C170.09246506 176.5652626 170.44274261 177.14224396 170.80363464 177.73670959 C172.94740755 181.26759164 175.09260204 184.79760594 177.23883057 188.32699585 C184.96769417 201.03693954 192.67273058 213.76011293 200.31005859 226.52539062 C203.72148277 232.22171374 207.15325892 237.90494284 210.609375 243.57421875 C210.99689941 244.21034088 211.38442383 244.84646301 211.78369141 245.50186157 C213.67107241 248.59949308 215.56095876 251.69554679 217.45507812 254.7890625 C218.13505859 255.90410156 218.81503906 257.01914062 219.515625 258.16796875 C220.11665039 259.15047607 220.71767578 260.1329834 221.33691406 261.14526367 C223.02418909 264.0415213 224.51397637 266.99658922 226 270 C216.13462779 270.39516096 206.27115545 270.69654287 196.39946175 270.88080692 C191.81423312 270.96928973 187.2344412 271.08906017 182.65234375 271.2824707 C153.20457145 272.49268645 153.20457145 272.49268645 146.45477295 268.49105835 C142.69006253 264.6870744 141.07660356 260.30384235 139.675354 255.21731567 C138.64620051 251.83840898 136.94586955 249.20213469 135.0859375 246.19921875 C133.84786663 244.02926834 132.61090698 241.85868359 131.375 239.6875 C130.6922654 238.49032485 130.00940044 237.29322404 129.32641602 236.09619141 C127.91743535 233.62644301 126.50899414 231.1563884 125.10107422 228.68603516 C121.71625941 222.74728602 118.32768565 216.81068453 114.9375 210.875 C114.28700684 209.73603271 113.63651367 208.59706543 112.96630859 207.42358398 C106.01455176 195.26102454 99.01208608 183.12786018 92 171 C87.52580983 174.69982677 83.44890574 178.49876288 79.5625 182.8125 C78.26505859 184.24529297 78.26505859 184.24529297 76.94140625 185.70703125 C76.48701675 186.23444916 76.03262726 186.76186707 75.56446838 187.30526733 C74 189 74 189 71.99790955 190.70571899 C67.1426613 195.19792568 65.27346345 199.05090917 65 205.63110352 C64.93120527 208.63256996 64.96024206 211.62720374 65 214.62890625 C64.99247059 216.23032089 64.98142702 217.83172249 64.96704102 219.43309021 C64.93875545 223.62074204 64.95779713 227.80685405 64.98712158 231.9944458 C65.01239024 237.03320744 64.97813051 242.07188265 64.95399475 247.11060333 C64.92403522 254.74129486 64.96909429 262.36822087 65 270 C43.55 270 22.1 270 0 270 C0 180.9 0 91.8 0 0 Z " fill="#FEFEFE" transform="translate(143,121)"/>
<path d="M0 0 C3.35278552 1.67639276 4.60931902 2.37700205 6.94140625 4.96484375 C7.79810913 5.89840698 7.79810913 5.89840698 8.67211914 6.85083008 C9.29594482 7.53943115 9.91977051 8.22803223 10.5625 8.9375 C15.92695818 14.78424454 21.42156464 20.44565754 27.09375 25.9921875 C27.70782211 26.59513138 28.32189423 27.19807526 28.95457458 27.81929016 C31.44432398 30.26351061 33.93379661 32.7073492 36.44754028 35.12692261 C38.2272754 36.84070354 39.99157087 38.56913915 41.75390625 40.30078125 C42.29893799 40.81683929 42.84396973 41.33289734 43.40551758 41.86459351 C44.88891602 43.3371582 44.88891602 43.3371582 47 46 C46.86506104 49.67841152 44.67048141 52.26109247 42.625 55.25 C41.8928125 56.32636719 41.160625 57.40273437 40.40625 58.51171875 C39.60511451 59.67513243 38.80302062 60.83788669 38 62 C37.61585938 62.5563916 37.23171875 63.1127832 36.8359375 63.68603516 C36.44664062 64.24983887 36.05734375 64.81364258 35.65625 65.39453125 C34.81239444 66.61711465 33.96864904 67.83977408 33.125 69.0625 C32.68067627 69.70574219 32.23635254 70.34898437 31.77856445 71.01171875 C25.52432668 80.09804428 19.44065067 89.29988445 13.33203125 98.484375 C12.61740723 99.55751953 11.9027832 100.63066406 11.16650391 101.73632812 C9.67286772 103.98637642 8.1852456 106.23951807 6.70458984 108.49804688 C5.98094238 109.59697266 5.25729492 110.69589844 4.51171875 111.828125 C3.86033936 112.82231445 3.20895996 113.81650391 2.5378418 114.84082031 C2.030354 115.55334961 1.52286621 116.26587891 1 117 C0.67 117 0.34 117 0 117 C0 78.39 0 39.78 0 0 Z " fill="#1D86D9" transform="translate(208,122)"/>
<path d="M0 0 C0.33 0 0.66 0 1 0 C1 10.23 1 20.46 1 31 C-9.23 31 -19.46 31 -30 31 C-27.12594215 29.08396144 -24.30114921 27.67186862 -21.1875 26.1875 C-9.97244349 20.59348386 -4.71543966 13.95482872 -0.69921875 2.16015625 C-0.46847656 1.44730469 -0.23773438 0.73445313 0 0 Z " fill="#000000" transform="translate(511,481)"/>
<path d="M0 0 C1.04954459 2.09908918 2.09329958 4.20181104 3.078125 6.33203125 C8.20333889 17.18040065 14.57433159 24.14600492 25.9375 28.3125 C27.62133891 28.88586641 29.30766749 29.45221064 31 30 C31 30.33 31 30.66 31 31 C20.77 31 10.54 31 0 31 C0 20.77 0 10.54 0 0 Z " fill="#000000" transform="translate(0,481)"/>
<path d="M0 0 C10.23 0 20.46 0 31 0 C28.90091082 1.04954459 26.79818896 2.09329958 24.66796875 3.078125 C13.81959935 8.20333889 6.85399508 14.57433159 2.6875 25.9375 C2.11413359 27.62133891 1.54778936 29.30766749 1 31 C0.67 31 0.34 31 0 31 C0 20.77 0 10.54 0 0 Z " fill="#000000" transform="translate(0,0)"/>
<path d="M0 0 C10.23 0 20.46 0 31 0 C31 10.23 31 20.46 31 31 C29.95045541 28.90091082 28.90670042 26.79818896 27.921875 24.66796875 C22.79666111 13.81959935 16.42566841 6.85399508 5.0625 2.6875 C3.37866109 2.11413359 1.69233251 1.54778936 0 1 C0 0.67 0 0.34 0 0 Z " fill="#000000" transform="translate(481,0)"/>
</svg>
